# xmcd CD database file
#
# Track frame offsets:
#	150
#	20251
#	41591
#	63775
#	85331
#	110780
#	130494
#	148195
#	172771
#	193122
#	215495
#	238711
#
# Disc length: 3468 seconds
#
# Revision: 2
# Processed by: cddbd v1.5.1PL2 Copyright (c) Steve Scherf et al.
# Submitted via: CD2WAV32(JP) R3.22
#
DISCID=ab0d8a0c
DTITLE=真理絵 - ADVANCED BLUE - GWAVE Super Feature's vol.1
DYEAR=2005
DGENRE=JPop
TTITLE0=veracious ～またたく一瞬の光～
TTITLE1=黄金流砂
TTITLE2=祈りの翼
TTITLE3=Never despair
TTITLE4=Deepsea fish
TTITLE5=巡る地球
TTITLE6=ポジティブで行こう!
TTITLE7=笑顔で続くこの道を
TTITLE8=push and tough
TTITLE9=over and over
TTITLE10=rhythmic
TTITLE11=Dear...
EXTD=
EXTT0=曲:たくまる 詞:真理絵
EXTT1=曲:Barbarian On The Groove 詞:真理絵
EXTT2=曲:Manack 詞:真理絵
EXTT3=曲:wata (Spotlight☆Kid) 詞:真理絵
EXTT4=曲:OdiakeS 詞:真理絵
EXTT5=曲:Manack 詞:真理絵
EXTT6=曲:OdiakeS 詞:真理絵
EXTT7=曲:Manack 詞:真理絵
EXTT8=曲:OdiakeS 詞:真理絵
EXTT9=曲:たくまる 詞:真理絵 英詞:Divina Commedia コーラス:中恵光城
EXTT10=曲:たくまる 詞:真理絵
EXTT11=曲:Barbarian On The Groove 詞:真理絵
PLAYORDER=
